<?xml version="1.0" standalone="no"?>
<!DOCTYPE svg PUBLIC "-//W3C//DTD SVG 20010904//EN"
 "http://www.w3.org/TR/2001/REC-SVG-20010904/DTD/svg10.dtd">
<svg version="1.0" xmlns="http://www.w3.org/2000/svg"
 width="700.000000pt" height="700.000000pt" viewBox="0 0 700.000000 700.000000"
 preserveAspectRatio="xMidYMid meet">
<metadata>
Created by potrace 1.14, written by Peter Selinger 2001-2017
</metadata>
<g transform="translate(0.000000,700.000000) scale(0.100000,-0.100000)"
fill="#000000" stroke="none">
<path d="M3464 5733 c-16 -37 -29 -70 -30 -73 0 -3 -7 -21 -16 -40 -8 -19 -20
-51 -27 -70 -10 -30 -22 -40 -90 -72 l-79 -38 -20 -62 c-11 -35 -28 -94 -37
-133 -9 -38 -23 -85 -31 -103 -7 -18 -13 -33 -12 -35 0 -1 -22 -72 -50 -157
-27 -85 -53 -171 -57 -190 -4 -19 -13 -48 -20 -65 -7 -16 -19 -47 -25 -67 -10
-32 -14 -36 -29 -28 -10 5 -25 19 -34 32 -8 13 -30 40 -48 60 -36 39 -55 61
-166 198 -38 47 -94 112 -124 145 -87 94 -349 354 -350 347 -1 -4 -1 -10 -1
-13 1 -3 4 -39 7 -80 7 -78 11 -106 21 -152 3 -16 7 -38 9 -50 16 -100 17
-105 29 -157 3 -14 8 -52 12 -85 13 -129 19 -181 28 -235 5 -25 11 -65 22
-137 3 -21 9 -63 14 -93 18 -110 27 -177 35 -255 3 -33 9 -73 12 -90 12 -65 9
-80 -15 -83 -15 -2 -39 9 -68 34 -81 66 -198 146 -264 182 -69 37 -172 100
-180 111 -7 9 -68 51 -74 51 -5 0 -82 49 -291 186 -68 44 -202 114 -219 114
-3 0 -29 11 -58 24 -29 13 -70 31 -90 39 l-37 15 19 -41 c34 -79 98 -222 130
-292 18 -38 48 -108 67 -155 35 -85 77 -184 115 -270 11 -25 27 -61 35 -80 33
-80 207 -420 215 -420 4 0 8 -5 8 -11 0 -7 7 -17 14 -23 8 -6 18 -23 21 -37 6
-25 5 -25 -42 -23 -165 8 -283 15 -313 19 -36 4 -105 11 -200 20 -30 3 -66 7
-80 9 -14 3 -64 7 -112 11 -86 6 -109 9 -178 21 -19 4 -45 8 -57 9 -11 2 -31
6 -43 10 -23 7 -39 10 -108 20 l-44 6 79 -78 c132 -130 183 -175 303 -267 115
-89 272 -218 300 -246 8 -8 40 -35 70 -60 30 -25 57 -47 60 -50 3 -3 41 -35
85 -70 103 -83 121 -100 109 -101 -5 -1 -31 -2 -59 -4 -27 -1 -72 -5 -100 -10
-27 -4 -59 -9 -70 -10 -11 -2 -33 -5 -50 -8 -36 -6 -94 -15 -155 -22 -25 -3
-63 -8 -85 -12 -22 -3 -51 -7 -65 -8 -55 -5 -146 -16 -170 -20 -14 -2 -43 -7
-65 -10 -23 -3 -52 -7 -65 -10 -13 -3 -42 -7 -65 -10 -22 -3 -49 -9 -60 -12
-11 -3 -31 -7 -45 -8 -14 -2 -43 -5 -65 -9 -22 -3 -60 -8 -85 -11 -24 -3 -48
-9 -52 -13 -5 -5 44 -28 109 -51 136 -50 274 -107 388 -161 87 -42 246 -109
480 -202 172 -69 245 -106 245 -124 0 -13 -52 -55 -73 -58 -7 -1 -30 -12 -50
-24 -21 -12 -42 -22 -47 -22 -4 0 -10 -4 -12 -8 -3 -9 -147 -93 -293 -172 -79
-42 -215 -128 -225 -142 -3 -4 -53 -27 -110 -52 -58 -25 -143 -63 -190 -86
-173 -84 -250 -123 -250 -126 0 -1 210 -3 468 -4 451 -1 487 -1 515 0 6 1 36
-1 65 -3 29 -2 54 -1 57 3 2 4 26 4 52 0 26 -4 52 -5 57 -3 4 3 40 5 80 3 193
-5 258 -5 263 3 3 4 10 4 16 -1 10 -6 319 -9 337 -2 11 4 161 1 168 -4 5 -3
25 -1 45 4 20 4 39 4 42 0 3 -5 18 -5 33 -1 15 4 38 5 52 2 14 -3 75 -5 135
-4 61 2 119 3 130 3 55 0 434 -1 615 -1 263 0 278 0 320 2 19 0 40 0 45 -1 10
-2 126 -2 135 0 5 1 250 0 320 -1 19 -1 38 0 43 1 18 5 65 3 99 -4 20 -3 55
-2 77 3 24 5 43 5 47 0 3 -5 17 -6 31 -3 26 7 58 7 303 5 128 -1 108 0 565 -1
332 0 412 0 430 -1 142 -3 893 5 890 11 -11 17 -186 115 -350 196 -99 48 -182
87 -185 87 -10 0 -312 158 -320 168 -3 3 -27 17 -55 31 -274 138 -417 228
-361 228 9 0 24 4 34 10 9 5 76 28 147 50 72 22 150 49 175 59 50 22 80 33 95
36 9 2 195 75 414 162 36 14 112 41 170 60 58 19 119 40 136 48 16 7 39 16 49
19 23 8 13 20 -17 22 -60 4 -166 20 -267 40 -41 8 -89 16 -105 19 -17 2 -41 6
-55 9 -46 10 -145 28 -174 32 -17 2 -71 11 -120 20 -129 21 -162 26 -271 40
-38 4 -88 12 -145 21 -14 2 -59 7 -100 10 -92 6 -105 16 -65 49 17 13 35 24
41 24 6 0 17 7 25 16 7 8 56 44 108 79 53 35 115 82 139 103 23 22 57 50 74
63 17 13 36 29 42 34 6 6 92 71 191 145 99 74 189 143 200 154 11 10 31 23 45
30 29 13 142 90 178 120 13 12 28 29 34 39 9 18 5 18 -79 12 -107 -8 -149 -12
-305 -31 -21 -2 -77 -6 -125 -9 -49 -3 -97 -7 -108 -9 -12 -2 -52 -7 -90 -11
-39 -3 -83 -8 -100 -10 -16 -2 -75 -7 -130 -9 -55 -3 -143 -8 -196 -12 l-96
-5 -7 50 c-7 57 -10 52 89 191 64 91 185 287 185 300 0 5 4 10 8 12 4 2 51 91
104 198 52 107 137 280 188 383 51 104 99 191 107 194 7 3 13 12 13 20 0 11
-4 13 -12 6 -7 -6 -47 -23 -88 -39 -41 -15 -92 -37 -112 -49 -88 -49 -314
-180 -323 -187 -5 -5 -91 -63 -190 -130 -99 -67 -198 -134 -220 -149 -22 -15
-103 -60 -180 -100 -77 -40 -142 -77 -143 -81 -2 -5 -10 -15 -19 -23 -13 -13
-16 -13 -30 1 -12 12 -14 27 -9 67 3 29 8 70 11 92 3 22 8 54 12 70 3 17 7 37
9 45 1 8 7 30 12 48 6 17 9 32 6 32 -3 0 0 9 5 19 6 11 13 45 16 78 4 53 10
97 20 163 2 14 7 45 10 70 3 25 14 90 25 145 54 283 77 416 86 510 3 39 8 78
10 88 1 9 1 17 -1 17 -5 0 -265 -261 -340 -341 -55 -58 -192 -221 -216 -255
-13 -20 -74 -90 -161 -188 -27 -30 -38 -37 -42 -26 -3 8 -23 74 -45 145 -82
265 -153 493 -183 587 -34 110 -75 166 -136 191 -37 15 -40 21 -91 149 -30 73
-57 136 -60 141 -4 4 -20 -23 -37 -60z m-1299 -2733 c4 -52 8 -113 10 -135 1
-22 6 -65 10 -95 4 -30 9 -66 10 -80 2 -14 10 -72 20 -130 9 -58 18 -118 20
-135 3 -28 9 -69 19 -134 3 -14 7 -44 11 -67 3 -22 8 -61 9 -85 2 -24 6 -58 9
-74 4 -17 9 -64 12 -105 5 -81 11 -116 25 -170 17 -60 15 -62 -37 -55 -26 3
-49 8 -52 10 -3 1 -22 6 -41 9 -61 9 -169 36 -248 61 -43 13 -95 27 -117 31
-22 3 -71 19 -109 35 -38 16 -76 28 -85 27 -30 -5 -14 46 72 223 46 96 88 184
91 197 4 12 11 22 15 22 4 0 8 6 8 13 0 8 19 49 44 93 24 43 44 81 44 84 1 3
8 21 17 40 8 19 28 64 42 100 42 100 79 174 91 182 5 4 7 8 3 8 -6 0 23 92 55
170 8 19 17 44 21 54 13 36 24 1 31 -94z m2730 4 c40 -96 72 -169 101 -228 8
-16 14 -33 14 -37 0 -5 18 -45 40 -90 22 -45 40 -88 40 -95 0 -7 3 -14 8 -16
4 -1 27 -48 50 -103 24 -55 67 -147 97 -205 30 -58 66 -130 82 -160 15 -30 31
-57 35 -60 4 -4 10 -20 14 -36 5 -28 2 -33 -29 -47 -19 -10 -40 -17 -46 -17
-6 0 -19 -4 -29 -9 -38 -19 -139 -61 -172 -70 -160 -47 -238 -67 -345 -86
-101 -19 -96 -19 -90 8 2 12 6 36 9 52 2 17 7 37 10 45 6 16 12 72 31 260 3
36 8 80 10 99 9 62 45 306 49 326 5 27 18 123 22 160 2 17 8 68 13 115 9 71
23 242 24 288 1 33 24 -3 62 -94z m-2385 -979 c0 -8 -4 -15 -10 -15 -5 0 -10
-8 -10 -17 -1 -19 -27 -59 -34 -52 -3 2 0 26 6 52 7 36 14 47 29 47 10 0 19
-7 19 -15z m3245 -654 c3 -5 1 -12 -5 -16 -5 -3 -10 1 -10 9 0 18 6 21 15 7z"/>
<path d="M5601 5449 c-312 -91 -546 -369 -552 -654 l-2 -80 29 3 c50 6 230 90
289 135 76 59 206 198 225 241 33 73 91 268 97 324 7 60 9 60 -86 31z"/>
<path d="M1309 5448 c-6 -53 57 -286 101 -373 19 -36 107 -135 171 -191 85
-74 250 -161 338 -178 l34 -6 -6 97 c-4 75 -11 114 -33 168 -60 151 -156 278
-259 343 -22 14 -42 28 -45 32 -10 14 -128 69 -191 89 -107 33 -109 33 -110
19z"/>
<path d="M6295 4189 c-82 -16 -129 -29 -180 -48 -105 -40 -227 -129 -308 -226
-61 -73 -76 -101 -107 -198 l-18 -57 24 -6 c56 -14 250 15 339 51 168 67 265
138 335 244 19 29 40 58 45 64 39 46 101 165 91 174 -8 8 -181 9 -221 2z"/>
<path d="M503 4182 c-13 -2 -23 -9 -23 -15 1 -20 64 -132 91 -160 10 -12 19
-26 19 -33 0 -7 4 -14 8 -16 4 -1 23 -25 42 -53 41 -59 44 -62 90 -96 31 -23
117 -72 130 -74 3 0 16 -7 28 -14 79 -43 187 -70 320 -77 119 -7 116 -11 78
97 -24 69 -75 145 -148 221 -47 49 -174 136 -229 157 -19 7 -43 17 -54 21 -11
5 -33 11 -50 15 -16 3 -50 11 -75 16 -45 11 -184 17 -227 11z"/>
<path d="M6500 3044 c-148 -22 -309 -97 -384 -178 -36 -40 -86 -103 -86 -108
0 -8 83 -46 112 -52 12 -3 52 -12 88 -21 58 -14 225 -21 275 -11 11 2 43 7 70
11 65 9 104 26 176 75 32 22 63 40 69 40 5 0 10 3 10 8 0 4 15 15 33 25 17 10
56 40 85 67 l53 49 -32 17 c-141 72 -312 101 -469 78z"/>
<path d="M388 3045 c-2 -2 -36 -6 -76 -9 -40 -4 -84 -11 -98 -16 -13 -5 -24
-8 -24 -5 0 4 -105 -34 -152 -56 -16 -7 -28 -18 -28 -25 0 -34 280 -228 362
-250 89 -23 268 -34 353 -21 90 15 245 67 245 84 0 15 -118 138 -154 161 -23
14 -53 34 -68 44 -36 24 -188 74 -253 82 -76 11 -104 13 -107 11z"/>
</g>
</svg>
